REM DIRINDEX 1\6,1\2\7,1\2\8,1\2\9,1\3\10,1\3\11,1\4\12,1\4\13,1\4\14,1\5\15,1\5\16,1\5\17
REM DIRNAME folder01,folder02,folder03,folder04,folder05,folder06,folder07,folder08,folder09,folder10,folder11,folder12,folder13,folder14,folder15,folder16,folder17
TITLE ""
FILE "3Q_t2_0472-0487.mp3" MP3
  TRACK 01 AUDIO
    TITLE "7:cjc041_4831"
    INDEX 01 00:00:00
  TRACK 02 AUDIO
    TITLE "0:"
    INDEX 01 00:00:70
  TRACK 03 AUDIO
    TITLE "8:cjc041_4832"
    INDEX 01 00:01:50
  TRACK 04 AUDIO
    TITLE "0:"
    INDEX 01 00:02:67
  TRACK 05 AUDIO
    TITLE "9:cjc041_4833"
    INDEX 01 00:03:47
  TRACK 06 AUDIO
    TITLE "0:"
    INDEX 01 00:04:52
  TRACK 07 AUDIO
    TITLE "7:cjc041_4834"
    INDEX 01 00:06:33
  TRACK 08 AUDIO
    TITLE "0:"
    INDEX 01 00:07:39
  TRACK 09 AUDIO
    TITLE "8:cjc041_4835"
    INDEX 01 00:08:23
  TRACK 10 AUDIO
    TITLE "0:"
    INDEX 01 00:10:68
  TRACK 11 AUDIO
    TITLE "9:cjc041_4836"
    INDEX 01 00:11:50
  TRACK 12 AUDIO
    TITLE "0:"
    INDEX 01 00:12:58
  TRACK 13 AUDIO
    TITLE "7:cjc041_4837"
    INDEX 01 00:14:39
  TRACK 14 AUDIO
    TITLE "0:"
    INDEX 01 00:15:46
  TRACK 15 AUDIO
    TITLE "8:cjc041_4838"
    INDEX 01 00:16:24
  TRACK 16 AUDIO
    TITLE "0:"
    INDEX 01 00:17:21
  TRACK 17 AUDIO
    TITLE "9:cjc041_4839"
    INDEX 01 00:18:03
  TRACK 18 AUDIO
    TITLE "0:"
    INDEX 01 00:19:13
  TRACK 19 AUDIO
    TITLE "7:cjc041_4840"
    INDEX 01 00:20:67
  TRACK 20 AUDIO
    TITLE "0:"
    INDEX 01 00:22:19
  TRACK 21 AUDIO
    TITLE "8:cjc041_4841"
    INDEX 01 00:22:72
  TRACK 22 AUDIO
    TITLE "0:"
    INDEX 01 00:24:22
  TRACK 23 AUDIO
    TITLE "9:cjc041_4842"
    INDEX 01 00:24:74
  TRACK 24 AUDIO
    TITLE "0:"
    INDEX 01 00:26:26
  TRACK 25 AUDIO
    TITLE "7:cjc041_4843"
    INDEX 01 00:28:08
  TRACK 26 AUDIO
    TITLE "0:"
    INDEX 01 00:29:31
  TRACK 27 AUDIO
    TITLE "8:cjc041_4844"
    INDEX 01 00:30:03
  TRACK 28 AUDIO
    TITLE "0:"
    INDEX 01 00:31:18
  TRACK 29 AUDIO
    TITLE "9:cjc041_4845"
    INDEX 01 00:31:73
  TRACK 30 AUDIO
    TITLE "0:"
    INDEX 01 00:33:22
  TRACK 31 AUDIO
    TITLE "7:cjc041_4846"
    INDEX 01 00:34:73
  TRACK 32 AUDIO
    TITLE "0:"
    INDEX 01 00:36:03
  TRACK 33 AUDIO
    TITLE "8:cjc041_4847"
    INDEX 01 00:36:60
  TRACK 34 AUDIO
    TITLE "0:"
    INDEX 01 00:37:52
  TRACK 35 AUDIO
    TITLE "9:cjc041_4848"
    INDEX 01 00:38:28
  TRACK 36 AUDIO
    TITLE "0:"
    INDEX 01 00:39:33
  TRACK 37 AUDIO
    TITLE "7:cjc041_4849"
    INDEX 01 00:41:10
  TRACK 38 AUDIO
    TITLE "0:"
    INDEX 01 00:42:16
  TRACK 39 AUDIO
    TITLE "8:cjc041_4850"
    INDEX 01 00:42:70
  TRACK 40 AUDIO
    TITLE "0:"
    INDEX 01 00:43:70
  TRACK 41 AUDIO
    TITLE "9:cjc041_4851"
    INDEX 01 00:44:46
  TRACK 42 AUDIO
    TITLE "0:"
    INDEX 01 00:45:53
  TRACK 43 AUDIO
    TITLE "7:cjc041_4852"
    INDEX 01 00:47:30
  TRACK 44 AUDIO
    TITLE "0:"
    INDEX 01 00:48:53
  TRACK 45 AUDIO
    TITLE "8:cjc041_4853"
    INDEX 01 00:49:31
  TRACK 46 AUDIO
    TITLE "0:"
    INDEX 01 00:50:54
  TRACK 47 AUDIO
    TITLE "9:cjc041_4854"
    INDEX 01 00:51:32
  TRACK 48 AUDIO
    TITLE "0:"
    INDEX 01 00:52:61
  TRACK 49 AUDIO
    TITLE "7:cjc041_4855"
    INDEX 01 00:54:42
  TRACK 50 AUDIO
    TITLE "0:"
    INDEX 01 00:55:53
  TRACK 51 AUDIO
    TITLE "8:cjc041_4856"
    INDEX 01 00:56:33
  TRACK 52 AUDIO
    TITLE "0:"
    INDEX 01 00:57:52
  TRACK 53 AUDIO
    TITLE "9:cjc041_4857"
    INDEX 01 00:58:26
  TRACK 54 AUDIO
    TITLE "0:"
    INDEX 01 00:59:41
  TRACK 55 AUDIO
    TITLE "7:cjc041_4858"
    INDEX 01 01:01:21
  TRACK 56 AUDIO
    TITLE "0:"
    INDEX 01 01:02:40
  TRACK 57 AUDIO
    TITLE "8:cjc041_4859"
    INDEX 01 01:03:18
  TRACK 58 AUDIO
    TITLE "0:"
    INDEX 01 01:05:13
  TRACK 59 AUDIO
    TITLE "9:cjc041_4860"
    INDEX 01 01:05:62
  TRACK 60 AUDIO
    TITLE "0:"
    INDEX 01 01:07:04
  TRACK 61 AUDIO
    TITLE "7:cjc041_4861"
    INDEX 01 01:08:58
  TRACK 62 AUDIO
    TITLE "0:"
    INDEX 01 01:10:10
  TRACK 63 AUDIO
    TITLE "8:cjc041_4862"
    INDEX 01 01:10:57
  TRACK 64 AUDIO
    TITLE "0:"
    INDEX 01 01:11:58
  TRACK 65 AUDIO
    TITLE "9:cjc041_4863"
    INDEX 01 01:12:38
  TRACK 66 AUDIO
    TITLE "0:"
    INDEX 01 01:13:67
  TRACK 67 AUDIO
    TITLE "7:cjc041_4864"
    INDEX 01 01:15:46
  TRACK 68 AUDIO
    TITLE "0:"
    INDEX 01 01:16:54
  TRACK 69 AUDIO
    TITLE "8:cjc041_4865"
    INDEX 01 01:17:35
  TRACK 70 AUDIO
    TITLE "0:"
    INDEX 01 01:18:49
  TRACK 71 AUDIO
    TITLE "9:cjc041_4866"
    INDEX 01 01:19:28
  TRACK 72 AUDIO
    TITLE "0:"
    INDEX 01 01:20:40
  TRACK 73 AUDIO
    TITLE "7:cjc041_4867"
    INDEX 01 01:22:17
  TRACK 74 AUDIO
    TITLE "0:"
    INDEX 01 01:23:58
  TRACK 75 AUDIO
    TITLE "8:cjc041_4868"
    INDEX 01 01:24:32
  TRACK 76 AUDIO
    TITLE "0:"
    INDEX 01 01:25:66
  TRACK 77 AUDIO
    TITLE "9:cjc041_4869"
    INDEX 01 01:26:46
  TRACK 78 AUDIO
    TITLE "0:"
    INDEX 01 01:28:10
  TRACK 79 AUDIO
    TITLE "7:cjc041_4870"
    INDEX 01 01:29:62
  TRACK 80 AUDIO
    TITLE "0:"
    INDEX 01 01:30:67
  TRACK 81 AUDIO
    TITLE "8:cjc041_4871"
    INDEX 01 01:31:45
  TRACK 82 AUDIO
    TITLE "0:"
    INDEX 01 01:33:58
  TRACK 83 AUDIO
    TITLE "9:cjc041_4872"
    INDEX 01 01:34:38
  TRACK 84 AUDIO
    TITLE "0:"
    INDEX 01 01:35:45
  TRACK 85 AUDIO
    TITLE "7:cjc041_4873"
    INDEX 01 01:37:26
  TRACK 86 AUDIO
    TITLE "0:"
    INDEX 01 01:38:34
  TRACK 87 AUDIO
    TITLE "8:cjc041_4874"
    INDEX 01 01:39:12
  TRACK 88 AUDIO
    TITLE "0:"
    INDEX 01 01:40:13
  TRACK 89 AUDIO
    TITLE "9:cjc041_4875"
    INDEX 01 01:40:72
  TRACK 90 AUDIO
    TITLE "0:"
    INDEX 01 01:42:10
  TRACK 91 AUDIO
    TITLE "7:cjc041_4876"
    INDEX 01 01:43:62
  TRACK 92 AUDIO
    TITLE "0:"
    INDEX 01 01:44:70
  TRACK 93 AUDIO
    TITLE "8:cjc041_4877"
    INDEX 01 01:45:45
  TRACK 94 AUDIO
    TITLE "0:"
    INDEX 01 01:46:39
  TRACK 95 AUDIO
    TITLE "9:cjc041_4878"
    INDEX 01 01:47:21
  TRACK 96 AUDIO
    TITLE "0:"
    INDEX 01 01:48:30
